<svg width="24" height="24" viewBox="0 0 24 24" fill="none" xmlns="http://www.w3.org/2000/svg">
<path d="M12.0959 5.5198V4.7998H12.8159V5.5198H12.0959ZM13.0079 5.5198V4.7998H13.7279V5.5198H13.0079ZM12.0959 6.43181V5.71181H12.8159V6.43181H12.0959ZM13.0079 6.43181V5.71181H13.7279V6.43181H13.0079ZM13.9199 6.43181V5.71181H14.6399V6.43181H13.9199ZM13.9199 7.34381V6.6238H14.6399V7.34381H13.9199ZM13.0079 7.34381V6.6238H13.7279V7.34381H13.0079ZM14.8319 7.34381V6.6238H15.5519V7.34381H14.8319ZM13.9199 8.25581V7.53581H14.6399V8.25581H13.9199ZM14.8319 8.25581V7.53581H15.5519V8.25581H14.8319ZM15.7439 8.25581V7.53581H16.4639V8.25581H15.7439ZM15.7439 9.16781V8.44781H16.4639V9.16781H15.7439ZM16.6559 9.16781V8.44781H17.3759V9.16781H16.6559ZM14.8319 9.16781V8.44781H15.5519V9.16781H14.8319ZM16.6559 10.0798V9.35981H17.3759V10.0798H16.6559ZM17.5679 10.0798V9.35981H18.2879V10.0798H17.5679ZM15.7439 10.0798V9.35981H16.4639V10.0798H15.7439ZM17.5679 10.9918V10.2718H18.2879V10.9918H17.5679ZM16.6559 10.9918V10.2718H17.3759V10.9918H16.6559ZM18.4799 10.9918V10.2718H19.1999V10.9918H18.4799ZM13.0079 11.9038V11.1838H13.7279V11.9038H13.0079ZM12.0959 11.9038V11.1838H12.8159V11.9038H12.0959ZM11.1839 11.9038V11.1838H11.9039V11.9038H11.1839ZM10.2719 11.9038V11.1838H10.9919V11.9038H10.2719ZM9.35994 11.9038V11.1838H10.0799V11.9038H9.35994ZM8.44794 11.9038V11.1838H9.16794V11.9038H8.44794ZM7.53594 11.9038V11.1838H8.25594V11.9038H7.53594ZM6.62394 11.9038V11.1838H7.34394V11.9038H6.62394ZM5.71194 11.9038V11.1838H6.43194V11.9038H5.71194ZM3.88794 11.9038V11.1838H4.60794V11.9038H3.88794ZM14.8319 11.9038V11.1838H15.5519V11.9038H14.8319ZM15.7439 11.9038V11.1838H16.4639V11.9038H15.7439ZM4.79994 11.9038V11.1838H5.51994V11.9038H4.79994ZM13.9199 11.9038V11.1838H14.6399V11.9038H13.9199ZM19.3919 11.9038V11.1838H20.1119V11.9038H19.3919ZM18.4799 11.9038V11.1838H19.1999V11.9038H18.4799ZM17.5679 11.9038V11.1838H18.2879V11.9038H17.5679ZM16.6559 11.9038V11.1838H17.3759V11.9038H16.6559ZM13.9199 12.8158V12.0958H14.6399V12.8158H13.9199ZM13.0079 12.8158V12.0958H13.7279V12.8158H13.0079ZM12.0959 12.8158V12.0958H12.8159V12.8158H12.0959ZM11.1839 12.8158V12.0958H11.9039V12.8158H11.1839ZM10.2719 12.8158V12.0958H10.9919V12.8158H10.2719ZM9.35994 12.8158V12.0958H10.0799V12.8158H9.35994ZM8.44794 12.8158V12.0958H9.16794V12.8158H8.44794ZM7.53594 12.8158V12.0958H8.25594V12.8158H7.53594ZM6.62394 12.8158V12.0958H7.34394V12.8158H6.62394ZM5.71194 12.8158V12.0958H6.43194V12.8158H5.71194ZM3.88794 12.8158V12.0958H4.60794V12.8158H3.88794ZM4.79994 12.8158V12.0958H5.51994V12.8158H4.79994ZM15.7439 12.8158V12.0958H16.4639V12.8158H15.7439ZM19.3919 12.8158V12.0958H20.1119V12.8158H19.3919ZM18.4799 12.8158V12.0958H19.1999V12.8158H18.4799ZM17.5679 12.8158V12.0958H18.2879V12.8158H17.5679ZM16.6559 12.8158V12.0958H17.3759V12.8158H16.6559ZM14.8319 12.8158V12.0958H15.5519V12.8158H14.8319ZM17.5679 13.7278V13.0078H18.2879V13.7278H17.5679ZM18.4799 13.7278V13.0078H19.1999V13.7278H18.4799ZM16.6559 13.7278V13.0078H17.3759V13.7278H16.6559ZM17.5679 14.6398V13.9198H18.2879V14.6398H17.5679ZM15.7439 14.6398V13.9198H16.4639V14.6398H15.7439ZM16.6559 14.6398V13.9198H17.3759V14.6398H16.6559ZM15.7439 15.5518V14.8318H16.4639V15.5518H15.7439ZM16.6559 15.5518V14.8318H17.3759V15.5518H16.6559ZM14.8319 15.5518V14.8318H15.5519V15.5518H14.8319ZM15.7439 16.4638V15.7438H16.4639V16.4638H15.7439ZM14.8319 16.4638V15.7438H15.5519V16.4638H14.8319ZM13.9199 16.4638V15.7438H14.6399V16.4638H13.9199ZM14.8319 17.3758V16.6558H15.5519V17.3758H14.8319ZM13.9199 17.3758V16.6558H14.6399V17.3758H13.9199ZM13.0079 17.3758V16.6558H13.7279V17.3758H13.0079ZM13.9199 18.2878V17.5678H14.6399V18.2878H13.9199ZM13.0079 18.2878V17.5678H13.7279V18.2878H13.0079ZM12.0959 18.2878V17.5678H12.8159V18.2878H12.0959ZM13.0079 19.1998V18.4798H13.7279V19.1998H13.0079ZM12.0959 19.1998V18.4798H12.8159V19.1998H12.0959Z" fill="white"/>
</svg>
