<svg width="24" height="24" viewBox="0 0 24 24" fill="none" xmlns="http://www.w3.org/2000/svg">
<path d="M14.0297 20.0674H13.1633V19.201H14.0297V20.0674Z" fill="white"/>
<path d="M15.0904 20.0674H14.2234V19.201H15.0904V20.0674Z" fill="white"/>
<path d="M8.72591 18.9975H7.85894V18.1311H8.72591V18.9975Z" fill="white"/>
<path d="M12.9691 18.9975H12.1026V18.1311H12.9691V18.9975Z" fill="white"/>
<path d="M14.0297 18.9975H13.1633V18.1311H14.0297V18.9975Z" fill="white"/>
<path d="M15.0904 18.9975H14.2234V18.1311H15.0904V18.9975Z" fill="white"/>
<path d="M8.72591 17.9276H7.85894V17.0612H8.72591V17.9276Z" fill="white"/>
<path d="M11.9084 17.9276H11.042V17.0612H11.9084V17.9276Z" fill="white"/>
<path d="M12.9691 17.9276H12.1026V17.0612H12.9691V17.9276Z" fill="white"/>
<path d="M14.0297 17.9276H13.1633V17.0612H14.0297V17.9276Z" fill="white"/>
<path d="M15.0904 17.9276H14.2234V17.0612H15.0904V17.9276Z" fill="white"/>
<path d="M16.151 17.9276H15.2841V17.0612H16.151V17.9276Z" fill="white"/>
<path d="M7.66526 16.8577H6.79829V15.9913H7.66526V16.8577Z" fill="white"/>
<path d="M8.72591 16.8577H7.85894V15.9913H8.72591V16.8577Z" fill="white"/>
<path d="M10.8472 16.8577H9.98025V15.9913H10.8472V16.8577Z" fill="white"/>
<path d="M11.9084 16.8577H11.042V15.9913H11.9084V16.8577Z" fill="white"/>
<path d="M12.9691 16.8577H12.1026V15.9913H12.9691V16.8577Z" fill="white"/>
<path d="M14.0297 16.8577H13.1633V15.9913H14.0297V16.8577Z" fill="white"/>
<path d="M15.0904 16.8577H14.2234V15.9913H15.0904V16.8577Z" fill="white"/>
<path d="M16.151 16.8577H15.2841V15.9913H16.151V16.8577Z" fill="white"/>
<path d="M7.66526 15.7879H6.79829V14.9214H7.66526V15.7879Z" fill="white"/>
<path d="M8.72591 15.7879H7.85894V14.9214H8.72591V15.7879Z" fill="white"/>
<path d="M11.9084 15.7879H11.042V14.9214H11.9084V15.7879Z" fill="white"/>
<path d="M12.9691 15.7879H12.1026V14.9214H12.9691V15.7879Z" fill="white"/>
<path d="M14.0297 15.7879H13.1633V14.9214H14.0297V15.7879Z" fill="white"/>
<path d="M15.0904 15.7879H14.2234V14.9214H15.0904V15.7879Z" fill="white"/>
<path d="M16.151 15.7879H15.2841V14.9214H16.151V15.7879Z" fill="white"/>
<path d="M17.2112 15.7879H16.3447V14.9214H17.2112V15.7879Z" fill="white"/>
<path d="M6.6046 14.718H5.73763V13.8516H6.6046V14.718Z" fill="white"/>
<path d="M7.66526 14.718H6.79829V13.8516H7.66526V14.718Z" fill="white"/>
<path d="M12.9691 14.718H12.1026V13.8516H12.9691V14.718Z" fill="white"/>
<path d="M14.0297 14.718H13.1633V13.8516H14.0297V14.718Z" fill="white"/>
<path d="M15.0904 14.718H14.2234V13.8516H15.0904V14.718Z" fill="white"/>
<path d="M16.151 14.718H15.2841V13.8516H16.151V14.718Z" fill="white"/>
<path d="M17.2112 14.718H16.3447V13.8516H17.2112V14.718Z" fill="white"/>
<path d="M4.48329 13.6481H3.61632V12.7817H4.48329V13.6481Z" fill="white"/>
<path d="M5.54395 13.6481H4.67697V12.7817H5.54395V13.6481Z" fill="white"/>
<path d="M6.6046 13.6481H5.73763V12.7817H6.6046V13.6481Z" fill="white"/>
<path d="M7.66526 13.6481H6.79829V12.7817H7.66526V13.6481Z" fill="white"/>
<path d="M8.72591 13.6481H7.85894V12.7817H8.72591V13.6481Z" fill="white"/>
<path d="M9.78657 13.6481H8.9196V12.7817H9.78657V13.6481Z" fill="white"/>
<path d="M14.0297 13.6481H13.1633V12.7817H14.0297V13.6481Z" fill="white"/>
<path d="M15.0904 13.6481H14.2234V12.7817H15.0904V13.6481Z" fill="white"/>
<path d="M16.151 13.6481H15.2841V12.7817H16.151V13.6481Z" fill="white"/>
<path d="M17.2112 13.6481H16.3447V12.7817H17.2112V13.6481Z" fill="white"/>
<path d="M18.2724 13.6481H17.4059V12.7817H18.2724V13.6481Z" fill="white"/>
<path d="M3.42209 12.5782H2.55566V11.7118H3.42209V12.5782Z" fill="white"/>
<path d="M4.48329 12.5782H3.61632V11.7118H4.48329V12.5782Z" fill="white"/>
<path d="M5.54395 12.5782H4.67697V11.7118H5.54395V12.5782Z" fill="white"/>
<path d="M6.6046 12.5782H5.73763V11.7118H6.6046V12.5782Z" fill="white"/>
<path d="M7.66526 12.5782H6.79829V11.7118H7.66526V12.5782Z" fill="white"/>
<path d="M8.72591 12.5782H7.85894V11.7118H8.72591V12.5782Z" fill="white"/>
<path d="M9.78657 12.5782H8.9196V11.7118H9.78657V12.5782Z" fill="white"/>
<path d="M10.8472 12.5782H9.98025V11.7118H10.8472V12.5782Z" fill="white"/>
<path d="M15.0904 12.5782H14.2234V11.7118H15.0904V12.5782Z" fill="white"/>
<path d="M16.151 12.5782H15.2841V11.7118H16.151V12.5782Z" fill="white"/>
<path d="M17.2112 12.5782H16.3447V11.7118H17.2112V12.5782Z" fill="white"/>
<path d="M18.2724 12.5782H17.4059V11.7118H18.2724V12.5782Z" fill="white"/>
<path d="M5.54395 11.5084H4.67697V10.6419H5.54395V11.5084Z" fill="white"/>
<path d="M6.6046 11.5084H5.73763V10.6419H6.6046V11.5084Z" fill="white"/>
<path d="M7.66526 11.5084H6.79829V10.6419H7.66526V11.5084Z" fill="white"/>
<path d="M8.72591 11.5084H7.85894V10.6419H8.72591V11.5084Z" fill="white"/>
<path d="M9.78657 11.5084H8.9196V10.6419H9.78657V11.5084Z" fill="white"/>
<path d="M10.8472 11.5084H9.98025V10.6419H10.8472V11.5084Z" fill="white"/>
<path d="M11.9079 11.5084H11.0409V10.6419H11.9079V11.5084Z" fill="white"/>
<path d="M16.151 11.5084H15.2841V10.6419H16.151V11.5084Z" fill="white"/>
<path d="M17.2112 11.5084H16.3447V10.6419H17.2112V11.5084Z" fill="white"/>
<path d="M18.2724 11.5084H17.4059V10.6419H18.2724V11.5084Z" fill="white"/>
<path d="M19.333 11.5084H18.4666V10.6419H19.333V11.5084Z" fill="white"/>
<path d="M7.66526 10.4385H6.79829V9.57205H7.66526V10.4385Z" fill="white"/>
<path d="M8.72591 10.4385H7.85894V9.57205H8.72591V10.4385Z" fill="white"/>
<path d="M9.78657 10.4385H8.9196V9.57205H9.78657V10.4385Z" fill="white"/>
<path d="M10.8472 10.4385H9.98025V9.57205H10.8472V10.4385Z" fill="white"/>
<path d="M11.9079 10.4385H11.0415V9.57205H11.9079V10.4385Z" fill="white"/>
<path d="M12.9685 10.4385H12.1016V9.57205H12.9685V10.4385Z" fill="white"/>
<path d="M14.0292 10.4385H13.1622V9.57205H14.0292V10.4385Z" fill="white"/>
<path d="M17.2112 10.4385H16.3447V9.57205H17.2112V10.4385Z" fill="white"/>
<path d="M18.2724 10.4385H17.4059V9.57205H18.2724V10.4385Z" fill="white"/>
<path d="M19.333 10.4385H18.4666V9.57205H19.333V10.4385Z" fill="white"/>
<path d="M9.78657 9.3686H8.92014V8.50217H9.78657V9.3686Z" fill="white"/>
<path d="M10.8472 9.3686H9.98079V8.50217H10.8472V9.3686Z" fill="white"/>
<path d="M11.9079 9.3686H11.0415V8.50217H11.9079V9.3686Z" fill="white"/>
<path d="M12.9685 9.3686H12.1021V8.50217H12.9685V9.3686Z" fill="white"/>
<path d="M14.0292 9.3686H13.1628V8.50217H14.0292V9.3686Z" fill="white"/>
<path d="M15.0898 9.3686H14.2234V8.50217H15.0898V9.3686Z" fill="white"/>
<path d="M18.2724 9.3686H17.4059V8.50217H18.2724V9.3686Z" fill="white"/>
<path d="M19.333 9.3686H18.4666V8.50217H19.333V9.3686Z" fill="white"/>
<path d="M12.9685 8.29872H12.1021V7.43229H12.9685V8.29872Z" fill="white"/>
<path d="M14.0292 8.29872H13.1628V7.43229H14.0292V8.29872Z" fill="white"/>
<path d="M15.0898 8.29872H14.2234V7.43229H15.0898V8.29872Z" fill="white"/>
<path d="M16.1505 8.29872H15.2841V7.43229H16.1505V8.29872Z" fill="white"/>
<path d="M19.333 8.29872H18.4666V7.43229H19.333V8.29872Z" fill="white"/>
<path d="M20.3937 8.29872H19.5267V7.43229H20.3937V8.29872Z" fill="white"/>
<path d="M16.151 7.22884H15.2841V6.36241H16.151V7.22884Z" fill="white"/>
<path d="M17.2112 7.22884H16.3447V6.36241H17.2112V7.22884Z" fill="white"/>
<path d="M18.2724 7.22884H17.4059V6.36241H18.2724V7.22884Z" fill="white"/>
<path d="M19.333 7.22884H18.4666V6.36241H19.333V7.22884Z" fill="white"/>
<path d="M20.3937 7.22884H19.5267V6.36241H20.3937V7.22884Z" fill="white"/>
<path d="M18.2724 6.15896H17.4059V5.29253H18.2724V6.15896Z" fill="white"/>
<path d="M19.333 6.15896H18.4666V5.29253H19.333V6.15896Z" fill="white"/>
<path d="M20.3937 6.15896H19.5267V5.29253H20.3937V6.15896Z" fill="white"/>
<path d="M21.4543 5.29253V6.15896H20.5873V5.29253H21.4543Z" fill="white"/>
<path d="M20.3937 5.08908H19.5272V4.22266H20.3937V5.08908Z" fill="white"/>
<path d="M21.4543 5.08908H20.5879V4.22266H21.4543V5.08908Z" fill="white"/>
</svg>
