<svg width="24" height="24" viewBox="0 0 24 24" fill="none" xmlns="http://www.w3.org/2000/svg">
<rect x="3" y="5.33301" width="1.33333" height="1.33333" fill="white"/>
<rect x="3" y="17" width="1.33333" height="1.33333" fill="white"/>
<rect x="5.33325" y="3" width="1.33333" height="1.33333" fill="white"/>
<rect x="5.33325" y="19.333" width="1.33333" height="1.33333" fill="white"/>
<rect x="7.66675" y="0.666992" width="1.33333" height="1.33333" fill="white"/>
<rect x="7.66675" y="21.667" width="1.33333" height="1.33333" fill="white"/>
<rect x="10" y="0.666992" width="1.33333" height="1.33333" fill="white"/>
<rect x="10" y="3" width="1.33333" height="1.33333" fill="white"/>
<rect x="17" y="3" width="1.33333" height="1.33333" fill="white"/>
<rect x="10" y="5.33301" width="1.33333" height="1.33333" fill="white"/>
<rect x="10" y="7.66699" width="1.33333" height="1.33333" fill="white"/>
<rect x="10" y="10" width="1.33333" height="1.33333" fill="white"/>
<rect x="17" y="19.333" width="1.33333" height="1.33333" fill="white"/>
<rect x="10" y="12.333" width="1.33333" height="1.33333" fill="white"/>
<rect x="10" y="21.667" width="1.33333" height="1.33333" fill="white"/>
<rect x="17" y="12.333" width="1.33333" height="1.33333" fill="white"/>
<rect x="12.3333" y="0.666992" width="1.33333" height="1.33333" fill="white"/>
<rect x="19.3333" y="5.33301" width="1.33333" height="1.33333" fill="white"/>
<rect x="19.3333" y="17" width="1.33333" height="1.33333" fill="white"/>
<rect x="12.3333" y="12.333" width="1.33333" height="1.33333" fill="white"/>
<rect x="12.3333" y="21.667" width="1.33333" height="1.33333" fill="white"/>
<rect x="14.6667" y="0.666992" width="1.33333" height="1.33333" fill="white"/>
<rect x="21.6667" y="7.66699" width="1.33333" height="1.33333" fill="white"/>
<rect x="21.6667" y="10" width="1.33333" height="1.33333" fill="white"/>
<rect x="14.6667" y="12.333" width="1.33333" height="1.33333" fill="white"/>
<rect x="14.6667" y="21.667" width="1.33333" height="1.33333" fill="white"/>
<rect x="21.6667" y="12.333" width="1.33333" height="1.33333" fill="white"/>
<rect x="21.6667" y="14.667" width="1.33333" height="1.33333" fill="white"/>
<rect x="0.666748" y="7.66699" width="1.33333" height="1.33333" fill="white"/>
<rect x="0.666748" y="10" width="1.33333" height="1.33333" fill="white"/>
<rect x="0.666748" y="12.333" width="1.33333" height="1.33333" fill="white"/>
<rect x="0.666748" y="14.667" width="1.33333" height="1.33333" fill="white"/>
</svg>
