<svg width="24" height="24" viewBox="0 0 24 24" fill="none" xmlns="http://www.w3.org/2000/svg">
<path d="M9.04798 11.6247V10.8447H9.82798V11.6247H9.04798ZM8.05998 11.6247V10.8447H8.83998V11.6247H8.05998ZM10.036 11.6247V10.8447H10.816V11.6247H10.036ZM11.024 11.6247V10.8447H11.804V11.6247H11.024ZM12.012 11.6247V10.8447H12.792V11.6247H12.012ZM16.952 11.6247V10.8447H17.732V11.6247H16.952ZM15.964 11.6247V10.8447H16.744V11.6247H15.964ZM14.976 11.6247V10.8447H15.756V11.6247H14.976ZM13.988 11.6247V10.8447H14.768V11.6247H13.988ZM13 11.6247V10.8447H13.78V11.6247H13ZM7.07198 11.6247V10.8447H7.85198V11.6247H7.07198ZM6.08398 11.6247V10.8447H6.86398V11.6247H6.08398ZM6.08398 12.6127V11.8327H6.86398V12.6127H6.08398ZM8.05998 12.6127V11.8327H8.83998V12.6127H8.05998ZM16.952 12.6127V11.8327H17.732V12.6127H16.952ZM15.964 12.6127V11.8327H16.744V12.6127H15.964ZM14.976 12.6127V11.8327H15.756V12.6127H14.976ZM13.988 12.6127V11.8327H14.768V12.6127H13.988ZM13 12.6127V11.8327H13.78V12.6127H13ZM12.012 12.6127V11.8327H12.792V12.6127H12.012ZM11.024 12.6127V11.8327H11.804V12.6127H11.024ZM10.036 12.6127V11.8327H10.816V12.6127H10.036ZM9.04798 12.6127V11.8327H9.82798V12.6127H9.04798ZM7.07198 12.6127V11.8327H7.85198V12.6127H7.07198Z" fill="white"/>
</svg>
