<svg width="24" height="24" viewBox="0 0 24 24" fill="none" xmlns="http://www.w3.org/2000/svg">
<path d="M11.024 6.6843V5.9043H11.804V6.6843H11.024ZM12.012 6.6843V5.9043H12.792V6.6843H12.012ZM12.012 7.6723V6.8923H12.792V7.6723H12.012ZM11.024 7.6723V6.8923H11.804V7.6723H11.024ZM12.012 8.6603V7.8803H12.792V8.6603H12.012ZM11.024 8.6603V7.8803H11.804V8.6603H11.024ZM12.012 9.6483V8.8683H12.792V9.6483H12.012ZM11.024 9.6483V8.8683H11.804V9.6483H11.024ZM12.012 10.6363V9.8563H12.792V10.6363H12.012ZM11.024 10.6363V9.8563H11.804V10.6363H11.024ZM9.04798 11.6243V10.8443H9.82798V11.6243H9.04798ZM8.05998 11.6243V10.8443H8.83998V11.6243H8.05998ZM10.036 11.6243V10.8443H10.816V11.6243H10.036ZM11.024 11.6243V10.8443H11.804V11.6243H11.024ZM12.012 11.6243V10.8443H12.792V11.6243H12.012ZM16.952 11.6243V10.8443H17.732V11.6243H16.952ZM15.964 11.6243V10.8443H16.744V11.6243H15.964ZM14.976 11.6243V10.8443H15.756V11.6243H14.976ZM13.988 11.6243V10.8443H14.768V11.6243H13.988ZM13 11.6243V10.8443H13.78V11.6243H13ZM7.07198 11.6243V10.8443H7.85198V11.6243H7.07198ZM6.08398 11.6243V10.8443H6.86398V11.6243H6.08398ZM6.08398 12.6123V11.8323H6.86398V12.6123H6.08398ZM8.05998 12.6123V11.8323H8.83998V12.6123H8.05998ZM16.952 12.6123V11.8323H17.732V12.6123H16.952ZM15.964 12.6123V11.8323H16.744V12.6123H15.964ZM14.976 12.6123V11.8323H15.756V12.6123H14.976ZM13.988 12.6123V11.8323H14.768V12.6123H13.988ZM13 12.6123V11.8323H13.78V12.6123H13ZM12.012 12.6123V11.8323H12.792V12.6123H12.012ZM11.024 12.6123V11.8323H11.804V12.6123H11.024ZM10.036 12.6123V11.8323H10.816V12.6123H10.036ZM9.04798 12.6123V11.8323H9.82798V12.6123H9.04798ZM7.07198 12.6123V11.8323H7.85198V12.6123H7.07198ZM11.024 13.6003V12.8203H11.804V13.6003H11.024ZM12.012 13.6003V12.8203H12.792V13.6003H12.012ZM11.024 14.5883V13.8083H11.804V14.5883H11.024ZM12.012 14.5883V13.8083H12.792V14.5883H12.012ZM11.024 15.5763V14.7963H11.804V15.5763H11.024ZM12.012 15.5763V14.7963H12.792V15.5763H12.012ZM11.024 16.5643V15.7843H11.804V16.5643H11.024ZM12.012 16.5643V15.7843H12.792V16.5643H12.012ZM11.024 17.5523V16.7723H11.804V17.5523H11.024ZM12.012 17.5523V16.7723H12.792V17.5523H12.012Z" fill="white"/>
</svg>
