<svg width="24" height="24" viewBox="0 0 24 24" fill="none" xmlns="http://www.w3.org/2000/svg">
<rect width="24" height="24" fill="black"/>
<rect x="5" y="2" width="2" height="2" fill="#FF4F4F"/>
<rect x="5" y="5" width="2" height="2" fill="#FF4F4F"/>
<rect x="5" y="8" width="2" height="2" fill="#FF4F4F"/>
<rect x="5" y="11" width="2" height="2" fill="white"/>
<rect x="5" y="14" width="2" height="2" fill="#FF4F4F"/>
<rect x="5" y="17" width="2" height="2" fill="#FF4F4F"/>
<rect x="5" y="20" width="2" height="2" fill="#FF4F4F"/>
<rect x="8" y="2" width="2" height="2" fill="#FF4F4F"/>
<rect x="8" y="5" width="2" height="2" fill="#FF4F4F"/>
<rect x="8" y="8" width="2" height="2" fill="white"/>
<rect x="8" y="11" width="2" height="2" fill="white"/>
<rect x="8" y="14" width="2" height="2" fill="white"/>
<rect x="8" y="17" width="2" height="2" fill="white"/>
<rect opacity="0.3" x="8" y="20" width="2" height="2" fill="#FF4F4F"/>
<rect x="11" y="2" width="2" height="2" fill="#FF4F4F"/>
<rect x="11" y="5" width="2" height="2" fill="white"/>
<rect x="11" y="8" width="2" height="2" fill="white"/>
<rect x="11" y="11" width="2" height="2" fill="white"/>
<rect x="11" y="14" width="2" height="2" fill="white"/>
<rect x="11" y="17" width="2" height="2" fill="white"/>
<rect opacity="0.3" x="11" y="20" width="2" height="2" fill="#FF4F4F"/>
<rect x="14" y="2" width="2" height="2" fill="#FF4F4F"/>
<rect x="14" y="5" width="2" height="2" fill="#FF4F4F"/>
<rect x="14" y="8" width="2" height="2" fill="white"/>
<rect x="14" y="11" width="2" height="2" fill="white"/>
<rect x="14" y="14" width="2" height="2" fill="white"/>
<rect x="14" y="17" width="2" height="2" fill="white"/>
<rect opacity="0.3" x="14" y="20" width="2" height="2" fill="#FF4F4F"/>
<rect x="17" y="2" width="2" height="2" fill="#FF4F4F"/>
<rect x="17" y="5" width="2" height="2" fill="#FF4F4F"/>
<rect x="17" y="8" width="2" height="2" fill="#FF4F4F"/>
<rect x="17" y="11" width="2" height="2" fill="white"/>
<rect x="17" y="14" width="2" height="2" fill="#FF4F4F"/>
<rect x="17" y="17" width="2" height="2" fill="#FF4F4F"/>
<rect x="17" y="20" width="2" height="2" fill="#FF4F4F"/>
<rect x="20" y="2" width="2" height="2" fill="#FF4F4F"/>
<rect x="20" y="5" width="2" height="2" fill="#FF4F4F"/>
<rect x="20" y="8" width="2" height="2" fill="#FF4F4F"/>
<rect x="20" y="11" width="2" height="2" fill="#FF4F4F"/>
<rect x="20" y="14" width="2" height="2" fill="#FF4F4F"/>
<rect x="20" y="17" width="2" height="2" fill="#FF4F4F"/>
<rect x="20" y="20" width="2" height="2" fill="#FF4F4F"/>
<rect x="2" y="2" width="2" height="2" fill="#FF4F4F"/>
<rect x="2" y="5" width="2" height="2" fill="#FF4F4F"/>
<rect x="2" y="8" width="2" height="2" fill="#FF4F4F"/>
<rect x="2" y="11" width="2" height="2" fill="#FF4F4F"/>
<rect x="2" y="14" width="2" height="2" fill="#FF4F4F"/>
<rect x="2" y="17" width="2" height="2" fill="#FF4F4F"/>
<rect x="2" y="20" width="2" height="2" fill="#FF4F4F"/>
</svg>
