<svg width="24" height="24" viewBox="0 0 24 24" fill="none" xmlns="http://www.w3.org/2000/svg">
<rect width="24" height="24" fill="black"/>
<rect x="19" y="22" width="2" height="2" transform="rotate(180 19 22)" fill="#627FFF"/>
<rect x="19" y="19" width="2" height="2" transform="rotate(180 19 19)" fill="#627FFF"/>
<rect opacity="0.5" x="19" y="16" width="2" height="2" transform="rotate(180 19 16)" fill="#627FFF"/>
<rect x="19" y="13" width="2" height="2" transform="rotate(180 19 13)" fill="white"/>
<rect x="19" y="10" width="2" height="2" transform="rotate(180 19 10)" fill="#627FFF"/>
<rect x="19" y="7" width="2" height="2" transform="rotate(180 19 7)" fill="#627FFF"/>
<rect x="19" y="4" width="2" height="2" transform="rotate(180 19 4)" fill="#627FFF"/>
<rect x="16" y="22" width="2" height="2" transform="rotate(180 16 22)" fill="#627FFF"/>
<rect opacity="0.5" x="16" y="19" width="2" height="2" transform="rotate(180 16 19)" fill="#627FFF"/>
<rect x="16" y="16" width="2" height="2" transform="rotate(180 16 16)" fill="white"/>
<rect x="16" y="13" width="2" height="2" transform="rotate(180 16 13)" fill="white"/>
<rect x="16" y="10" width="2" height="2" transform="rotate(180 16 10)" fill="white"/>
<rect x="16" y="7" width="2" height="2" transform="rotate(180 16 7)" fill="white"/>
<rect x="16" y="4" width="2" height="2" transform="rotate(180 16 4)" fill="#627FFF"/>
<rect opacity="0.5" x="13" y="22" width="2" height="2" transform="rotate(180 13 22)" fill="#627FFF"/>
<rect x="13" y="19" width="2" height="2" transform="rotate(180 13 19)" fill="white"/>
<rect x="13" y="16" width="2" height="2" transform="rotate(180 13 16)" fill="white"/>
<rect x="13" y="13" width="2" height="2" transform="rotate(180 13 13)" fill="white"/>
<rect x="13" y="10" width="2" height="2" transform="rotate(180 13 10)" fill="white"/>
<rect x="13" y="7" width="2" height="2" transform="rotate(180 13 7)" fill="white"/>
<rect x="13" y="4" width="2" height="2" transform="rotate(180 13 4)" fill="#627FFF"/>
<rect x="10" y="22" width="2" height="2" transform="rotate(180 10 22)" fill="#627FFF"/>
<rect opacity="0.5" x="10" y="19" width="2" height="2" transform="rotate(180 10 19)" fill="#627FFF"/>
<rect x="10" y="16" width="2" height="2" transform="rotate(180 10 16)" fill="white"/>
<rect x="10" y="13" width="2" height="2" transform="rotate(180 10 13)" fill="white"/>
<rect x="10" y="10" width="2" height="2" transform="rotate(180 10 10)" fill="white"/>
<rect x="10" y="7" width="2" height="2" transform="rotate(180 10 7)" fill="white"/>
<rect x="10" y="4" width="2" height="2" transform="rotate(180 10 4)" fill="#627FFF"/>
<rect x="7" y="22" width="2" height="2" transform="rotate(180 7 22)" fill="#627FFF"/>
<rect x="7" y="19" width="2" height="2" transform="rotate(180 7 19)" fill="#627FFF"/>
<rect opacity="0.5" x="7" y="16" width="2" height="2" transform="rotate(180 7 16)" fill="#627FFF"/>
<rect x="7" y="13" width="2" height="2" transform="rotate(180 7 13)" fill="white"/>
<rect x="7" y="10" width="2" height="2" transform="rotate(180 7 10)" fill="#627FFF"/>
<rect x="7" y="7" width="2" height="2" transform="rotate(180 7 7)" fill="#627FFF"/>
<rect x="7" y="4" width="2" height="2" transform="rotate(180 7 4)" fill="#627FFF"/>
<rect x="4" y="22" width="2" height="2" transform="rotate(180 4 22)" fill="#627FFF"/>
<rect x="4" y="19" width="2" height="2" transform="rotate(180 4 19)" fill="#627FFF"/>
<rect x="4" y="16" width="2" height="2" transform="rotate(180 4 16)" fill="#627FFF"/>
<rect x="4" y="13" width="2" height="2" transform="rotate(180 4 13)" fill="#627FFF"/>
<rect x="4" y="10" width="2" height="2" transform="rotate(180 4 10)" fill="#627FFF"/>
<rect x="4" y="7" width="2" height="2" transform="rotate(180 4 7)" fill="#627FFF"/>
<rect x="4" y="4" width="2" height="2" transform="rotate(180 4 4)" fill="#627FFF"/>
<rect x="22" y="22" width="2" height="2" transform="rotate(180 22 22)" fill="#627FFF"/>
<rect x="22" y="19" width="2" height="2" transform="rotate(180 22 19)" fill="#627FFF"/>
<rect x="22" y="16" width="2" height="2" transform="rotate(180 22 16)" fill="#627FFF"/>
<rect x="22" y="13" width="2" height="2" transform="rotate(180 22 13)" fill="#627FFF"/>
<rect x="22" y="10" width="2" height="2" transform="rotate(180 22 10)" fill="#627FFF"/>
<rect x="22" y="7" width="2" height="2" transform="rotate(180 22 7)" fill="#627FFF"/>
<rect x="22" y="4" width="2" height="2" transform="rotate(180 22 4)" fill="#627FFF"/>
</svg>
