<svg width="24" height="24" viewBox="0 0 24 24" fill="none" xmlns="http://www.w3.org/2000/svg">
<rect width="24" height="24" fill="black"/>
<rect x="22" y="5" width="2" height="2" transform="rotate(90 22 5)" fill="#F0B300"/>
<rect x="19" y="5" width="2" height="2" transform="rotate(90 19 5)" fill="#F0B300"/>
<rect x="16" y="5" width="2" height="2" transform="rotate(90 16 5)" fill="#F0B300"/>
<rect x="13" y="5" width="2" height="2" transform="rotate(90 13 5)" fill="white"/>
<rect x="10" y="5" width="2" height="2" transform="rotate(90 10 5)" fill="#F0B300"/>
<rect x="7" y="5" width="2" height="2" transform="rotate(90 7 5)" fill="#F0B300"/>
<rect x="4" y="5" width="2" height="2" transform="rotate(90 4 5)" fill="#F0B300"/>
<rect x="22" y="8" width="2" height="2" transform="rotate(90 22 8)" fill="#F0B300"/>
<rect x="19" y="8" width="2" height="2" transform="rotate(90 19 8)" fill="#F0B300"/>
<rect x="16" y="8" width="2" height="2" transform="rotate(90 16 8)" fill="white"/>
<rect x="13" y="8" width="2" height="2" transform="rotate(90 13 8)" fill="white"/>
<rect x="10" y="8" width="2" height="2" transform="rotate(90 10 8)" fill="white"/>
<rect x="7" y="8" width="2" height="2" transform="rotate(90 7 8)" fill="white"/>
<rect x="4" y="8" width="2" height="2" transform="rotate(90 4 8)" fill="#F0B300"/>
<rect x="22" y="11" width="2" height="2" transform="rotate(90 22 11)" fill="#F0B300"/>
<rect x="19" y="11" width="2" height="2" transform="rotate(90 19 11)" fill="white"/>
<rect x="16" y="11" width="2" height="2" transform="rotate(90 16 11)" fill="white"/>
<rect x="13" y="11" width="2" height="2" transform="rotate(90 13 11)" fill="white"/>
<rect x="10" y="11" width="2" height="2" transform="rotate(90 10 11)" fill="white"/>
<rect x="7" y="11" width="2" height="2" transform="rotate(90 7 11)" fill="white"/>
<rect x="4" y="11" width="2" height="2" transform="rotate(90 4 11)" fill="#F0B300"/>
<rect x="22" y="14" width="2" height="2" transform="rotate(90 22 14)" fill="#F0B300"/>
<rect opacity="0.4" x="19" y="14" width="2" height="2" transform="rotate(90 19 14)" fill="#F0B300"/>
<rect x="16" y="14" width="2" height="2" transform="rotate(90 16 14)" fill="white"/>
<rect x="13" y="14" width="2" height="2" transform="rotate(90 13 14)" fill="white"/>
<rect x="10" y="14" width="2" height="2" transform="rotate(90 10 14)" fill="white"/>
<rect x="7" y="14" width="2" height="2" transform="rotate(90 7 14)" fill="white"/>
<rect x="4" y="14" width="2" height="2" transform="rotate(90 4 14)" fill="#F0B300"/>
<rect x="22" y="17" width="2" height="2" transform="rotate(90 22 17)" fill="#F0B300"/>
<rect x="19" y="17" width="2" height="2" transform="rotate(90 19 17)" fill="#F0B300"/>
<rect opacity="0.4" x="16" y="17" width="2" height="2" transform="rotate(90 16 17)" fill="#F0B300"/>
<rect x="13" y="17" width="2" height="2" transform="rotate(90 13 17)" fill="white"/>
<rect opacity="0.4" x="10" y="17" width="2" height="2" transform="rotate(90 10 17)" fill="#F0B300"/>
<rect opacity="0.4" x="7" y="17" width="2" height="2" transform="rotate(90 7 17)" fill="#F0B300"/>
<rect x="4" y="17" width="2" height="2" transform="rotate(90 4 17)" fill="#F0B300"/>
<rect x="22" y="20" width="2" height="2" transform="rotate(90 22 20)" fill="#F0B300"/>
<rect x="19" y="20" width="2" height="2" transform="rotate(90 19 20)" fill="#F0B300"/>
<rect x="16" y="20" width="2" height="2" transform="rotate(90 16 20)" fill="#F0B300"/>
<rect opacity="0.4" x="13" y="20" width="2" height="2" transform="rotate(90 13 20)" fill="#F0B300"/>
<rect x="10" y="20" width="2" height="2" transform="rotate(90 10 20)" fill="#F0B300"/>
<rect x="7" y="20" width="2" height="2" transform="rotate(90 7 20)" fill="#F0B300"/>
<rect x="4" y="20" width="2" height="2" transform="rotate(90 4 20)" fill="#F0B300"/>
<rect x="22" y="2" width="2" height="2" transform="rotate(90 22 2)" fill="#F0B300"/>
<rect x="19" y="2" width="2" height="2" transform="rotate(90 19 2)" fill="#F0B300"/>
<rect x="16" y="2" width="2" height="2" transform="rotate(90 16 2)" fill="#F0B300"/>
<rect x="13" y="2" width="2" height="2" transform="rotate(90 13 2)" fill="#F0B300"/>
<rect x="10" y="2" width="2" height="2" transform="rotate(90 10 2)" fill="#F0B300"/>
<rect x="7" y="2" width="2" height="2" transform="rotate(90 7 2)" fill="#F0B300"/>
<rect x="4" y="2" width="2" height="2" transform="rotate(90 4 2)" fill="#F0B300"/>
</svg>
