<svg width="10" height="10" viewBox="0 0 10 10" fill="none" xmlns="http://www.w3.org/2000/svg">
<g clip-path="url(#clip0_9_5149)">
<rect width="10" height="10" fill="black"/>
<rect x="9.1665" y="0.833984" width="8.33398" height="8.33333" transform="rotate(90 9.1665 0.833984)" fill="#DDA300"/>
<rect x="5.41675" y="2.08301" width="0.833333" height="0.833333" transform="rotate(90 5.41675 2.08301)" fill="white"/>
<rect x="6.66675" y="3.33301" width="0.833333" height="0.833333" transform="rotate(90 6.66675 3.33301)" fill="white"/>
<rect x="5.41675" y="3.33301" width="0.833333" height="0.833333" transform="rotate(90 5.41675 3.33301)" fill="white"/>
<rect x="4.16675" y="3.33301" width="0.833333" height="0.833333" transform="rotate(90 4.16675 3.33301)" fill="white"/>
<rect x="2.91675" y="3.33301" width="0.833333" height="0.833333" transform="rotate(90 2.91675 3.33301)" fill="white"/>
<rect x="7.9165" y="4.58398" width="0.833333" height="0.833333" transform="rotate(90 7.9165 4.58398)" fill="white"/>
<rect x="7.9165" y="5.83496" width="0.833333" height="0.833333" transform="rotate(90 7.9165 5.83496)" fill="black" fill-opacity="0.8"/>
<rect x="6.66675" y="4.58301" width="0.833333" height="0.833333" transform="rotate(90 6.66675 4.58301)" fill="white"/>
<rect x="5.41675" y="4.58301" width="0.833333" height="0.833333" transform="rotate(90 5.41675 4.58301)" fill="white"/>
<rect x="4.16675" y="4.58301" width="0.833333" height="0.833333" transform="rotate(90 4.16675 4.58301)" fill="white"/>
<rect x="2.91675" y="4.58301" width="0.833333" height="0.833333" transform="rotate(90 2.91675 4.58301)" fill="white"/>
<rect x="6.6665" y="5.83398" width="0.833333" height="0.833333" transform="rotate(90 6.6665 5.83398)" fill="white"/>
<rect x="6.6665" y="7.08496" width="0.833333" height="0.833333" transform="rotate(90 6.6665 7.08496)" fill="black" fill-opacity="0.8"/>
<rect x="5.41675" y="5.83301" width="0.833333" height="0.833333" transform="rotate(90 5.41675 5.83301)" fill="white"/>
<rect x="4.1665" y="5.83398" width="0.833333" height="0.833333" transform="rotate(90 4.1665 5.83398)" fill="white"/>
<rect x="4.1665" y="7.08496" width="0.833333" height="0.833333" transform="rotate(90 4.1665 7.08496)" fill="black" fill-opacity="0.8"/>
<rect x="2.9165" y="5.83398" width="0.833333" height="0.833333" transform="rotate(90 2.9165 5.83398)" fill="white"/>
<rect x="2.9165" y="7.08496" width="0.833333" height="0.833333" transform="rotate(90 2.9165 7.08496)" fill="black" fill-opacity="0.8"/>
<rect x="5.4165" y="7.08398" width="0.833333" height="0.833333" transform="rotate(90 5.4165 7.08398)" fill="white"/>
<rect x="5.4165" y="8.33496" width="0.833333" height="0.833333" transform="rotate(90 5.4165 8.33496)" fill="black" fill-opacity="0.8"/>
</g>
<defs>
<clipPath id="clip0_9_5149">
<rect width="10" height="10" fill="white"/>
</clipPath>
</defs>
</svg>
