<svg width="10" height="10" viewBox="0 0 10 10" fill="none" xmlns="http://www.w3.org/2000/svg">
<g clip-path="url(#clip0_9_5129)">
<rect width="10" height="10" fill="black"/>
<rect x="0.833008" y="0.833984" width="8.33398" height="8.33333" fill="#DA0000"/>
<rect x="2.08301" y="4.58398" width="0.833333" height="0.833333" fill="white"/>
<rect x="3.33301" y="3.33398" width="0.833333" height="0.833333" fill="white"/>
<rect x="3.33301" y="4.58398" width="0.833333" height="0.833333" fill="white"/>
<rect x="3.33301" y="5.83398" width="0.833333" height="0.833333" fill="white"/>
<rect x="3.33301" y="7.08398" width="0.833333" height="0.833333" fill="white"/>
<rect x="3.33301" y="8.33398" width="0.833333" height="0.833333" fill="black" fill-opacity="0.8"/>
<rect x="4.5835" y="8.33398" width="0.833333" height="0.833333" fill="black" fill-opacity="0.8"/>
<rect x="5.83301" y="8.33398" width="0.833333" height="0.833333" fill="black" fill-opacity="0.8"/>
<rect x="4.58301" y="2.08398" width="0.833333" height="0.833333" fill="white"/>
<rect x="4.58301" y="3.33398" width="0.833333" height="0.833333" fill="white"/>
<rect x="4.58301" y="4.58398" width="0.833333" height="0.833333" fill="white"/>
<rect x="4.58301" y="5.83398" width="0.833333" height="0.833333" fill="white"/>
<rect x="4.58301" y="7.08398" width="0.833333" height="0.833333" fill="white"/>
<rect x="5.83301" y="3.33398" width="0.833333" height="0.833333" fill="white"/>
<rect x="5.83301" y="4.58398" width="0.833333" height="0.833333" fill="white"/>
<rect x="5.83301" y="5.83398" width="0.833333" height="0.833333" fill="white"/>
<rect x="5.83301" y="7.08398" width="0.833333" height="0.833333" fill="white"/>
<rect x="7.08301" y="4.58398" width="0.833333" height="0.833333" fill="white"/>
</g>
<defs>
<clipPath id="clip0_9_5129">
<rect width="10" height="10" fill="white"/>
</clipPath>
</defs>
</svg>
