<svg width="10" height="10" viewBox="0 0 10 10" fill="none" xmlns="http://www.w3.org/2000/svg">
<g clip-path="url(#clip0_9_5171)">
<rect width="10" height="10" fill="black"/>
<rect x="9.16699" y="9.16797" width="8.33398" height="8.33333" transform="rotate(-180 9.16699 9.16797)" fill="#2744C6"/>
<rect x="7.91699" y="5.41797" width="0.833333" height="0.833333" transform="rotate(-180 7.91699 5.41797)" fill="white"/>
<rect x="7.91699" y="6.66699" width="0.833333" height="0.833333" transform="rotate(-180 7.91699 6.66699)" fill="black" fill-opacity="0.8"/>
<rect x="6.66699" y="6.66797" width="0.833333" height="0.833333" transform="rotate(-180 6.66699 6.66797)" fill="white"/>
<rect x="6.66699" y="7.91699" width="0.833333" height="0.833333" transform="rotate(-180 6.66699 7.91699)" fill="black" fill-opacity="0.8"/>
<rect x="6.66699" y="5.41797" width="0.833333" height="0.833333" transform="rotate(-180 6.66699 5.41797)" fill="white"/>
<rect x="6.66699" y="4.16797" width="0.833333" height="0.833333" transform="rotate(-180 6.66699 4.16797)" fill="white"/>
<rect x="6.66699" y="2.91797" width="0.833333" height="0.833333" transform="rotate(-180 6.66699 2.91797)" fill="white"/>
<rect x="5.41699" y="7.91797" width="0.833333" height="0.833333" transform="rotate(-180 5.41699 7.91797)" fill="white"/>
<rect x="5.41699" y="9.16699" width="0.833333" height="0.833333" transform="rotate(-180 5.41699 9.16699)" fill="black" fill-opacity="0.8"/>
<rect x="5.41699" y="6.66797" width="0.833333" height="0.833333" transform="rotate(-180 5.41699 6.66797)" fill="white"/>
<rect x="5.41699" y="5.41797" width="0.833333" height="0.833333" transform="rotate(-180 5.41699 5.41797)" fill="white"/>
<rect x="5.41699" y="4.16797" width="0.833333" height="0.833333" transform="rotate(-180 5.41699 4.16797)" fill="white"/>
<rect x="5.41699" y="2.91797" width="0.833333" height="0.833333" transform="rotate(-180 5.41699 2.91797)" fill="white"/>
<rect x="4.16699" y="6.66797" width="0.833333" height="0.833333" transform="rotate(-180 4.16699 6.66797)" fill="white"/>
<rect x="4.16699" y="7.91699" width="0.833333" height="0.833333" transform="rotate(-180 4.16699 7.91699)" fill="black" fill-opacity="0.8"/>
<rect x="4.16699" y="5.41797" width="0.833333" height="0.833333" transform="rotate(-180 4.16699 5.41797)" fill="white"/>
<rect x="4.16699" y="4.16797" width="0.833333" height="0.833333" transform="rotate(-180 4.16699 4.16797)" fill="white"/>
<rect x="4.16699" y="2.91797" width="0.833333" height="0.833333" transform="rotate(-180 4.16699 2.91797)" fill="white"/>
<rect x="2.91699" y="5.41797" width="0.833333" height="0.833333" transform="rotate(-180 2.91699 5.41797)" fill="white"/>
<rect x="2.91699" y="6.66699" width="0.833333" height="0.833333" transform="rotate(-180 2.91699 6.66699)" fill="black" fill-opacity="0.8"/>
</g>
<defs>
<clipPath id="clip0_9_5171">
<rect width="10" height="10" fill="white"/>
</clipPath>
</defs>
</svg>
