<svg width="32" height="32" viewBox="0 0 32 32" fill="none" xmlns="http://www.w3.org/2000/svg">
<rect x="5.61914" y="11.1035" width="1.56685" height="1.56685" fill="#5C5C5C"/>
<rect x="5.61914" y="8.1709" width="1.56685" height="1.56685" fill="#5C5C5C"/>
<rect x="5.61914" y="5.82129" width="1.56685" height="1.56685" fill="#5C5C5C"/>
<rect x="5.61914" y="22.0713" width="1.56685" height="1.56685" fill="#5C5C5C"/>
<rect x="5.61914" y="13.8447" width="1.56685" height="1.56685" fill="#5C5C5C"/>
<rect x="5.61914" y="16.5869" width="1.56685" height="1.56685" fill="#5C5C5C"/>
<rect x="5.61914" y="19.3291" width="1.56685" height="1.56685" fill="#5C5C5C"/>
<rect x="8.36084" y="8.36035" width="1.56685" height="1.56685" fill="#444444"/>
<rect x="8.36084" y="11.1035" width="1.56685" height="1.56685" fill="#444444"/>
<rect x="8.36084" y="13.8447" width="1.56685" height="1.56685" fill="#444444"/>
<rect x="8.36084" y="16.5869" width="1.56685" height="1.56685" fill="#444444"/>
<rect x="8.36084" y="19.3281" width="1.56685" height="1.56685" fill="black"/>
<rect x="8.36084" y="22.0693" width="1.56685" height="1.56685" fill="black"/>
<rect x="11.1035" y="8.36035" width="1.56685" height="1.56685" fill="#444444"/>
<rect x="11.1035" y="11.1035" width="1.56685" height="1.56685" fill="#444444"/>
<rect x="11.1035" y="13.8447" width="1.56685" height="1.56685" fill="#444444"/>
<rect x="11.1035" y="16.5869" width="1.56685" height="1.56685" fill="black"/>
<rect x="11.1035" y="19.3281" width="1.56685" height="1.56685" fill="black"/>
<rect x="13.8452" y="5.61914" width="1.56685" height="1.56685" fill="#444444"/>
<rect x="13.8452" y="8.36035" width="1.56685" height="1.56685" fill="#444444"/>
<rect x="22.0713" y="8.36035" width="1.56685" height="1.56685" fill="#444444"/>
<rect x="13.8452" y="11.1035" width="1.56685" height="1.56685" fill="#444444"/>
<rect x="22.0713" y="11.1035" width="1.56685" height="1.56685" fill="#444444"/>
<rect x="13.8452" y="13.8447" width="1.56685" height="1.56685" fill="#444444"/>
<rect x="13.8452" y="16.5869" width="1.56685" height="1.56685" fill="black"/>
<rect x="13.8452" y="19.3281" width="1.56685" height="1.56685" fill="black"/>
<rect x="22.0713" y="13.8447" width="1.56685" height="1.56685" fill="#444444"/>
<rect x="22.0713" y="16.5869" width="1.56685" height="1.56685" fill="#444444"/>
<rect x="22.0713" y="19.3281" width="1.56685" height="1.56685" fill="black"/>
<rect x="22.0713" y="22.0693" width="1.56685" height="1.56685" fill="black"/>
<rect x="16.5869" y="5.61914" width="1.56685" height="1.56685" fill="#444444"/>
<rect x="16.5869" y="8.36035" width="1.56685" height="1.56685" fill="#444444"/>
<rect x="16.5869" y="11.1035" width="1.56685" height="1.56685" fill="#444444"/>
<rect x="16.5869" y="13.8447" width="1.56685" height="1.56685" fill="#444444"/>
<rect x="16.5869" y="16.5869" width="1.56685" height="1.56685" fill="#444444"/>
<rect x="16.5869" y="19.3281" width="1.56685" height="1.56685" fill="black"/>
<rect x="16.5869" y="22.0693" width="1.56685" height="1.56685" fill="black"/>
<rect x="19.3296" y="5.61914" width="1.56685" height="1.56685" fill="#444444"/>
<rect x="19.3296" y="8.36035" width="1.56685" height="1.56685" fill="#444444"/>
<rect x="19.3296" y="11.1035" width="1.56685" height="1.56685" fill="#444444"/>
<rect x="19.3296" y="13.8447" width="1.56685" height="1.56685" fill="#444444"/>
<rect x="19.3296" y="16.5869" width="1.56685" height="1.56685" fill="#444444"/>
<rect x="19.3296" y="19.3281" width="1.56685" height="1.56685" fill="black"/>
<rect x="19.3296" y="22.0693" width="1.56685" height="1.56685" fill="black"/>
</svg>
