<svg width="32" height="32" viewBox="0 0 32 32" fill="none" xmlns="http://www.w3.org/2000/svg">
<rect x="5.07422" y="10.8457" width="1.64912" height="1.64912" fill="#9E9E9E"/>
<rect x="5.07422" y="7.75977" width="1.64912" height="1.64912" fill="#9E9E9E"/>
<rect x="5.07422" y="5.28613" width="1.64912" height="1.64912" fill="#9E9E9E"/>
<rect x="5.07422" y="22.3896" width="1.64912" height="1.64912" fill="#9E9E9E"/>
<rect x="5.07422" y="13.7314" width="1.64912" height="1.64912" fill="#9E9E9E"/>
<rect x="5.07422" y="16.6172" width="1.64912" height="1.64912" fill="#9E9E9E"/>
<rect x="5.07422" y="19.5039" width="1.64912" height="1.64912" fill="#9E9E9E"/>
<rect x="7.95996" y="7.95898" width="1.64912" height="1.64912" fill="white"/>
<rect x="7.95996" y="10.8457" width="1.64912" height="1.64912" fill="white"/>
<rect x="7.95996" y="13.7314" width="1.64912" height="1.64912" fill="white"/>
<rect x="7.95996" y="16.6172" width="1.64912" height="1.64912" fill="white"/>
<rect x="10.8467" y="7.95898" width="1.64912" height="1.64912" fill="white"/>
<rect x="10.8467" y="10.8457" width="1.64912" height="1.64912" fill="white"/>
<rect x="10.8467" y="13.7314" width="1.64912" height="1.64912" fill="white"/>
<rect x="13.7324" y="5.07422" width="1.64912" height="1.64912" fill="white"/>
<rect x="13.7324" y="7.95898" width="1.64912" height="1.64912" fill="white"/>
<rect x="22.3901" y="7.95898" width="1.64912" height="1.64912" fill="white"/>
<rect x="13.7324" y="10.8457" width="1.64912" height="1.64912" fill="white"/>
<rect x="22.3901" y="10.8457" width="1.64912" height="1.64912" fill="white"/>
<rect x="13.7324" y="13.7314" width="1.64912" height="1.64912" fill="white"/>
<rect x="22.3901" y="13.7314" width="1.64912" height="1.64912" fill="white"/>
<rect x="22.3901" y="16.6172" width="1.64912" height="1.64912" fill="white"/>
<rect x="16.6177" y="5.07422" width="1.64912" height="1.64912" fill="white"/>
<rect x="16.6177" y="7.95898" width="1.64912" height="1.64912" fill="white"/>
<rect x="16.6177" y="10.8457" width="1.64912" height="1.64912" fill="white"/>
<rect x="16.6177" y="13.7314" width="1.64912" height="1.64912" fill="white"/>
<rect x="16.6177" y="16.6172" width="1.64912" height="1.64912" fill="white"/>
<rect x="19.5044" y="5.07422" width="1.64912" height="1.64912" fill="white"/>
<rect x="19.5044" y="7.95898" width="1.64912" height="1.64912" fill="white"/>
<rect x="19.5044" y="10.8457" width="1.64912" height="1.64912" fill="white"/>
<rect x="19.5044" y="13.7314" width="1.64912" height="1.64912" fill="white"/>
<rect x="19.5044" y="16.6172" width="1.64912" height="1.64912" fill="white"/>
</svg>
