<svg width="72" height="72" viewBox="0 0 72 72" fill="none" xmlns="http://www.w3.org/2000/svg">
<rect x="9" y="16" width="4" height="4" fill="white"/>
<rect x="9" y="51" width="4" height="4" fill="white"/>
<rect x="9" y="44" width="4" height="4" fill="white"/>
<rect x="16" y="9" width="4" height="4" fill="white"/>
<rect x="16" y="16" width="4" height="4" fill="white"/>
<rect x="16" y="23" width="4" height="4" fill="white"/>
<rect x="16" y="30" width="4" height="4" fill="white"/>
<rect x="16" y="58" width="4" height="4" fill="white"/>
<rect x="16" y="37" width="4" height="4" fill="white"/>
<rect x="16" y="44" width="4" height="4" fill="white"/>
<rect x="23" y="2" width="4" height="4" fill="white"/>
<rect x="23" y="16" width="4" height="4" fill="white"/>
<rect x="23" y="23" width="4" height="4" fill="white"/>
<rect x="23" y="65" width="4" height="4" fill="white"/>
<rect x="23" y="44" width="4" height="4" fill="white"/>
<rect x="30" y="2" width="4" height="4" fill="white"/>
<rect x="51" y="9" width="4" height="4" fill="white"/>
<rect x="30" y="16" width="4" height="4" fill="white"/>
<rect x="30" y="51" width="4" height="4" fill="white"/>
<rect x="30" y="58" width="4" height="4" fill="white"/>
<rect x="51" y="30" width="4" height="4" fill="white"/>
<rect x="51" y="58" width="4" height="4" fill="white"/>
<rect x="30" y="65" width="4" height="4" fill="white"/>
<rect x="51" y="37" width="4" height="4" fill="white"/>
<rect x="30" y="44" width="4" height="4" fill="white"/>
<rect x="51" y="44" width="4" height="4" fill="white"/>
<rect x="37" y="2" width="4" height="4" fill="white"/>
<rect x="37" y="16" width="4" height="4" fill="white"/>
<rect x="58" y="16" width="4" height="4" fill="white"/>
<rect x="37" y="23" width="4" height="4" fill="white"/>
<rect x="37" y="51" width="4" height="4" fill="white"/>
<rect x="58" y="51" width="4" height="4" fill="white"/>
<rect x="37" y="58" width="4" height="4" fill="white"/>
<rect x="37" y="65" width="4" height="4" fill="white"/>
<rect x="58" y="37" width="4" height="4" fill="white"/>
<rect x="37" y="44" width="4" height="4" fill="white"/>
<rect x="58" y="44" width="4" height="4" fill="white"/>
<rect x="44" y="2" width="4" height="4" fill="white"/>
<rect x="44" y="9" width="4" height="4" fill="white"/>
<rect x="44" y="16" width="4" height="4" fill="white"/>
<rect x="44" y="23" width="4" height="4" fill="white"/>
<rect x="65" y="23" width="4" height="4" fill="white"/>
<rect x="44" y="30" width="4" height="4" fill="white"/>
<rect x="65" y="30" width="4" height="4" fill="white"/>
<rect x="44" y="37" width="4" height="4" fill="white"/>
<rect x="44" y="65" width="4" height="4" fill="white"/>
<rect x="65" y="37" width="4" height="4" fill="white"/>
<rect x="44" y="44" width="4" height="4" fill="white"/>
<rect x="65" y="44" width="4" height="4" fill="white"/>
<rect x="2" y="23" width="4" height="4" fill="white"/>
<rect x="2" y="30" width="4" height="4" fill="white"/>
<rect x="2" y="37" width="4" height="4" fill="white"/>
<rect x="2" y="44" width="4" height="4" fill="white"/>
</svg>
