<svg width="55" height="55" viewBox="0 0 55 55" fill="none" xmlns="http://www.w3.org/2000/svg">
<rect x="7.48828" y="7.50195" width="2" height="2" fill="white"/>
<rect x="7.48828" y="14.9941" width="2" height="2" fill="white"/>
<rect x="7.48828" y="24.9902" width="2" height="2" fill="white"/>
<rect x="7.48828" y="27.4893" width="2" height="2" fill="white"/>
<rect x="4.99219" y="27.4893" width="2" height="2" fill="white"/>
<rect x="7.48828" y="29.9883" width="2" height="2" fill="white"/>
<rect x="4.99219" y="29.9883" width="2" height="2" fill="white"/>
<rect x="4.99219" y="39.9844" width="2" height="2" fill="white"/>
<rect x="7.48828" y="32.4873" width="2" height="2" fill="white"/>
<rect x="4.99219" y="32.4873" width="2" height="2" fill="white"/>
<rect x="4.99219" y="42.4834" width="2" height="2" fill="white"/>
<rect x="7.48828" y="34.9863" width="2" height="2" fill="white"/>
<rect x="7.48828" y="37.4854" width="2" height="2" fill="white"/>
<rect x="7.48828" y="44.9824" width="2" height="2" fill="white"/>
<rect x="7.48828" y="17.4932" width="2" height="2" fill="white"/>
<rect x="4.99219" y="9.99609" width="2" height="2" fill="white"/>
<rect x="4.99219" y="12.4902" width="2" height="2" fill="white"/>
<rect x="2.49609" y="14.9941" width="2" height="2" fill="white"/>
<rect x="2.49609" y="34.9863" width="2" height="2" fill="white"/>
<rect x="2.49609" y="17.4932" width="2" height="2" fill="white"/>
<rect x="2.49609" y="37.4854" width="2" height="2" fill="white"/>
<rect y="19.9922" width="2" height="2" fill="white"/>
<rect y="22.4912" width="2" height="2" fill="white"/>
<rect y="24.9902" width="2" height="2" fill="white"/>
<rect y="27.4893" width="2" height="2" fill="white"/>
<rect y="29.9883" width="2" height="2" fill="white"/>
<rect y="32.4873" width="2" height="2" fill="white"/>
<rect x="9.98462" y="4.99805" width="2" height="2" fill="white"/>
<rect x="9.98462" y="9.99609" width="2" height="2" fill="white"/>
<rect x="9.98462" y="12.4951" width="2" height="2" fill="white"/>
<rect x="9.98462" y="14.9941" width="2" height="2" fill="white"/>
<rect x="9.98462" y="24.9902" width="2" height="2" fill="white"/>
<rect x="9.98462" y="22.4912" width="2" height="2" fill="white"/>
<rect x="9.98462" y="27.4893" width="2" height="2" fill="white"/>
<rect x="9.98462" y="29.9883" width="2" height="2" fill="white"/>
<rect x="9.98462" y="32.4873" width="2" height="2" fill="white"/>
<rect x="9.98462" y="34.9863" width="2" height="2" fill="white"/>
<rect x="9.98462" y="37.4854" width="2" height="2" fill="white"/>
<rect x="9.98462" y="47.4814" width="2" height="2" fill="white"/>
<rect x="9.98462" y="17.4932" width="2" height="2" fill="white"/>
<rect x="9.98462" y="19.9922" width="2" height="2" fill="white"/>
<rect x="12.4866" y="4.99805" width="2" height="2" fill="white"/>
<rect x="12.4866" y="9.99609" width="2" height="2" fill="white"/>
<rect x="12.4866" y="12.4951" width="2" height="2" fill="white"/>
<rect x="12.4866" y="14.9941" width="2" height="2" fill="white"/>
<rect x="12.4866" y="24.9902" width="2" height="2" fill="white"/>
<rect x="12.4866" y="27.4893" width="2" height="2" fill="white"/>
<rect x="12.4866" y="29.9883" width="2" height="2" fill="white"/>
<rect x="12.4866" y="32.4873" width="2" height="2" fill="white"/>
<rect x="12.4866" y="34.9863" width="2" height="2" fill="white"/>
<rect x="12.4866" y="37.4854" width="2" height="2" fill="white"/>
<rect x="12.4866" y="47.4814" width="2" height="2" fill="white"/>
<rect x="12.4866" y="17.4932" width="2" height="2" fill="white"/>
<rect x="12.4866" y="19.9922" width="2" height="2" fill="white"/>
<rect x="14.9885" y="2.49902" width="2" height="2" fill="white"/>
<rect x="14.9885" y="7.49707" width="2" height="2" fill="white"/>
<rect x="14.9885" y="9.99609" width="2" height="2" fill="white"/>
<rect x="14.9885" y="12.4951" width="2" height="2" fill="white"/>
<rect x="14.9885" y="14.9941" width="2" height="2" fill="white"/>
<rect x="14.9885" y="24.9902" width="2" height="2" fill="white"/>
<rect x="14.9885" y="27.4893" width="2" height="2" fill="white"/>
<rect x="14.9885" y="29.9883" width="2" height="2" fill="white"/>
<rect x="14.9885" y="32.4873" width="2" height="2" fill="white"/>
<rect x="14.9885" y="34.9863" width="2" height="2" fill="white"/>
<rect x="14.9885" y="49.9805" width="2" height="2" fill="white"/>
<rect x="14.9885" y="37.4854" width="2" height="2" fill="white"/>
<rect x="14.9885" y="17.4932" width="2" height="2" fill="white"/>
<rect x="14.9885" y="19.9922" width="2" height="2" fill="white"/>
<rect x="17.4905" y="2.49902" width="2" height="2" fill="white"/>
<rect x="17.4905" y="7.49707" width="2" height="2" fill="white"/>
<rect x="17.4905" y="9.99609" width="2" height="2" fill="white"/>
<rect x="17.4905" y="12.4951" width="2" height="2" fill="white"/>
<rect x="17.4905" y="14.9941" width="2" height="2" fill="white"/>
<rect x="17.4905" y="24.9902" width="2" height="2" fill="white"/>
<rect x="17.4905" y="27.4893" width="2" height="2" fill="white"/>
<rect x="17.4905" y="29.9883" width="2" height="2" fill="white"/>
<rect x="17.4905" y="32.4873" width="2" height="2" fill="white"/>
<rect x="17.4905" y="34.9863" width="2" height="2" fill="white"/>
<rect x="17.4905" y="49.9805" width="2" height="2" fill="white"/>
<rect x="17.4905" y="17.4932" width="2" height="2" fill="white"/>
<rect x="17.4905" y="19.9922" width="2" height="2" fill="white"/>
<rect x="19.9924" width="2" height="2" fill="white"/>
<rect x="19.9924" y="9.99609" width="2" height="2" fill="white"/>
<rect x="19.9924" y="12.4951" width="2" height="2" fill="white"/>
<rect x="19.9924" y="14.9941" width="2" height="2" fill="white"/>
<rect x="19.9924" y="52.4795" width="2" height="2" fill="white"/>
<rect x="19.9924" y="17.4932" width="2" height="2" fill="white"/>
<rect x="22.4944" width="2" height="2" fill="white"/>
<rect x="22.4944" y="9.99609" width="2" height="2" fill="white"/>
<rect x="22.4944" y="12.4951" width="2" height="2" fill="white"/>
<rect x="22.4944" y="14.9941" width="2" height="2" fill="white"/>
<rect x="22.4944" y="52.4795" width="2" height="2" fill="white"/>
<rect x="24.9963" width="2" height="2" fill="white"/>
<rect x="24.9963" y="34.9863" width="2" height="2" fill="white"/>
<rect x="22.4944" y="34.9863" width="2" height="2" fill="white"/>
<rect x="24.9963" y="37.4854" width="2" height="2" fill="white"/>
<rect x="22.4944" y="37.4854" width="2" height="2" fill="white"/>
<rect x="19.9924" y="37.4854" width="2" height="2" fill="white"/>
<rect x="24.9963" y="39.9844" width="2" height="2" fill="white"/>
<rect x="22.4944" y="39.9844" width="2" height="2" fill="white"/>
<rect x="19.9924" y="39.9844" width="2" height="2" fill="white"/>
<rect x="17.4905" y="39.9844" width="2" height="2" fill="white"/>
<rect x="24.9963" y="42.4834" width="2" height="2" fill="white"/>
<rect x="22.4944" y="42.4834" width="2" height="2" fill="white"/>
<rect x="19.9924" y="42.4834" width="2" height="2" fill="white"/>
<rect x="24.9963" y="44.9824" width="2" height="2" fill="white"/>
<rect x="22.4944" y="44.9824" width="2" height="2" fill="white"/>
<rect x="24.9963" y="47.4814" width="2" height="2" fill="white"/>
<rect x="22.4944" y="47.4814" width="2" height="2" fill="white"/>
<rect x="24.9963" y="52.4795" width="2" height="2" fill="white"/>
<rect x="27.4983" y="52.4795" width="2" height="2" fill="white"/>
<rect x="30.0002" y="52.4795" width="2" height="2" fill="white"/>
<rect x="32.5022" y="52.4795" width="2" height="2" fill="white"/>
<rect x="27.4983" width="2" height="2" fill="white"/>
<rect x="27.4983" y="9.99609" width="2" height="2" fill="white"/>
<rect x="27.4983" y="12.4951" width="2" height="2" fill="white"/>
<rect x="27.4983" y="14.9941" width="2" height="2" fill="white"/>
<rect x="30.0002" width="2" height="2" fill="white"/>
<rect x="30.0002" y="9.99609" width="2" height="2" fill="white"/>
<rect x="30.0002" y="12.4951" width="2" height="2" fill="white"/>
<rect x="30.0002" y="14.9941" width="2" height="2" fill="white"/>
<rect x="30.0002" y="17.4932" width="2" height="2" fill="white"/>
<rect x="32.5022" width="2" height="2" fill="white"/>
<rect x="32.5022" y="7.49707" width="2" height="2" fill="white"/>
<rect x="32.5022" y="9.99609" width="2" height="2" fill="white"/>
<rect x="32.5022" y="12.4951" width="2" height="2" fill="white"/>
<rect x="32.5022" y="14.9941" width="2" height="2" fill="white"/>
<rect x="32.5022" y="17.4932" width="2" height="2" fill="white"/>
<rect x="32.5022" y="19.9922" width="2" height="2" fill="white"/>
<rect x="35.0042" y="9.99609" width="2" height="2" fill="white"/>
<rect x="35.0042" y="12.4951" width="2" height="2" fill="white"/>
<rect x="35.0042" y="14.9941" width="2" height="2" fill="white"/>
<rect x="35.0042" y="17.4932" width="2" height="2" fill="white"/>
<rect x="35.0042" y="19.9922" width="2" height="2" fill="white"/>
<rect x="35.0042" y="7.49707" width="2" height="2" fill="white"/>
<rect x="37.5061" y="9.99609" width="2" height="2" fill="white"/>
<rect x="37.5061" y="12.4951" width="2" height="2" fill="white"/>
<rect x="37.5061" y="14.9941" width="2" height="2" fill="white"/>
<rect x="37.5061" y="17.4932" width="2" height="2" fill="white"/>
<rect x="37.5061" y="7.49707" width="2" height="2" fill="white"/>
<rect x="40.0081" y="9.99609" width="2" height="2" fill="white"/>
<rect x="40.0081" y="12.4951" width="2" height="2" fill="white"/>
<rect x="40.0081" y="14.9941" width="2" height="2" fill="white"/>
<rect x="40.0081" y="17.4932" width="2" height="2" fill="white"/>
<rect x="40.0081" y="19.9922" width="2" height="2" fill="white"/>
<rect x="40.0081" y="22.4912" width="2" height="2" fill="white"/>
<rect x="40.0081" y="24.9902" width="2" height="2" fill="white"/>
<rect x="40.0081" y="27.4893" width="2" height="2" fill="white"/>
<rect x="40.0081" y="29.9883" width="2" height="2" fill="white"/>
<rect x="40.0081" y="32.4873" width="2" height="2" fill="white"/>
<rect x="40.0081" y="34.9863" width="2" height="2" fill="white"/>
<rect x="40.0081" y="47.4814" width="2" height="2" fill="white"/>
<rect x="37.5061" y="24.9902" width="2" height="2" fill="white"/>
<rect x="37.5061" y="27.4893" width="2" height="2" fill="white"/>
<rect x="35.0042" y="27.4893" width="2" height="2" fill="white"/>
<rect x="37.5061" y="29.9883" width="2" height="2" fill="white"/>
<rect x="35.0042" y="29.9883" width="2" height="2" fill="white"/>
<rect x="37.5061" y="32.4873" width="2" height="2" fill="white"/>
<rect x="37.5061" y="49.9805" width="2" height="2" fill="white"/>
<rect x="35.0042" y="32.4873" width="2" height="2" fill="white"/>
<rect x="35.0042" y="49.9805" width="2" height="2" fill="white"/>
<rect x="37.5061" y="34.9863" width="2" height="2" fill="white"/>
<rect x="32.5022" y="34.9863" width="2" height="2" fill="white"/>
<rect x="32.5022" y="37.4854" width="2" height="2" fill="white"/>
<rect x="32.5022" y="39.9844" width="2" height="2" fill="white"/>
<rect x="32.5022" y="42.4834" width="2" height="2" fill="white"/>
<rect x="32.5022" y="44.9824" width="2" height="2" fill="white"/>
<rect x="35.0042" y="37.4854" width="2" height="2" fill="white"/>
<rect x="35.0042" y="39.9844" width="2" height="2" fill="white"/>
<rect x="35.0042" y="42.4834" width="2" height="2" fill="white"/>
<rect x="30" y="34.9863" width="2" height="2" fill="white"/>
<rect x="30" y="37.4854" width="2" height="2" fill="white"/>
<rect x="30" y="39.9844" width="2" height="2" fill="white"/>
<rect x="30" y="42.4834" width="2" height="2" fill="white"/>
<rect x="30" y="44.9824" width="2" height="2" fill="white"/>
<rect x="30" y="47.4814" width="2" height="2" fill="white"/>
<rect x="27.4978" y="34.9863" width="2" height="2" fill="white"/>
<rect x="27.4978" y="37.4854" width="2" height="2" fill="white"/>
<rect x="27.4978" y="39.9844" width="2" height="2" fill="white"/>
<rect x="27.4978" y="42.4834" width="2" height="2" fill="white"/>
<rect x="27.4978" y="44.9824" width="2" height="2" fill="white"/>
<rect x="27.4978" y="47.4814" width="2" height="2" fill="white"/>
<rect x="42.51" y="19.9922" width="2" height="2" fill="white"/>
<rect x="42.51" y="22.4912" width="2" height="2" fill="white"/>
<rect x="45.012" y="22.4912" width="2" height="2" fill="white"/>
<rect x="42.51" y="24.9902" width="2" height="2" fill="white"/>
<rect x="42.51" y="27.4893" width="2" height="2" fill="white"/>
<rect x="42.51" y="29.9883" width="2" height="2" fill="white"/>
<rect x="42.51" y="32.4873" width="2" height="2" fill="white"/>
<rect x="42.51" y="34.9863" width="2" height="2" fill="white"/>
<rect x="42.51" y="47.4814" width="2" height="2" fill="white"/>
<rect x="45.012" y="24.9902" width="2" height="2" fill="white"/>
<rect x="45.012" y="27.4893" width="2" height="2" fill="white"/>
<rect x="45.012" y="29.9883" width="2" height="2" fill="white"/>
<rect x="45.012" y="32.4873" width="2" height="2" fill="white"/>
<rect x="45.012" y="44.9824" width="2" height="2" fill="white"/>
<rect x="47.5139" y="24.9902" width="2" height="2" fill="white"/>
<rect x="47.5139" y="27.4893" width="2" height="2" fill="white"/>
<rect x="47.5139" y="29.9883" width="2" height="2" fill="white"/>
<rect x="47.5139" y="42.4834" width="2" height="2" fill="white"/>
<rect x="47.5139" y="39.9844" width="2" height="2" fill="white"/>
<rect x="35.0042" y="2.49902" width="2" height="2" fill="white"/>
<rect x="37.5061" y="2.49902" width="2" height="2" fill="white"/>
<rect x="40.0081" y="4.99805" width="2" height="2" fill="white"/>
<rect x="42.51" y="4.99805" width="2" height="2" fill="white"/>
<rect x="45.012" y="7.49707" width="2" height="2" fill="white"/>
<rect x="47.5139" y="9.99609" width="2" height="2" fill="white"/>
<rect x="50.0159" y="14.9941" width="2" height="2" fill="white"/>
<rect x="50.0159" y="34.9863" width="2" height="2" fill="white"/>
<rect x="50.0159" y="17.4932" width="2" height="2" fill="white"/>
<rect x="50.0159" y="37.4854" width="2" height="2" fill="white"/>
<rect x="52.5178" y="19.9922" width="2" height="2" fill="white"/>
<rect x="52.5178" y="22.4912" width="2" height="2" fill="white"/>
<rect x="52.5178" y="24.9902" width="2" height="2" fill="white"/>
<rect x="52.5178" y="27.4893" width="2" height="2" fill="white"/>
<rect x="52.5178" y="29.9883" width="2" height="2" fill="white"/>
<rect x="52.5178" y="32.4873" width="2" height="2" fill="white"/>
</svg>
